PathFileType	4	(X/Y/Z)	34_1_7_p0_0-1094_filt_butterworth.trc
DataRate	CameraRate	NumFrames	NumMarkers	Units	OrigDataRate	OrigDataStartFrame	OrigNumFrames
59.0	59.0	5	27	m	59.0	547	1094
Frame#	Time	RHip			RKnee			RAnkle			RBigToe			RSmallToe			RHeel			LHip			LKnee			LAnkle			LBigToe			LSmallToe			LHeel			Neck			Head			Nose			RShoulder			RElbow			RWrist			RThumb			RIndex			RPinky			LShoulder			LElbow			LWrist			LThumb			LIndex			LPinky			
		X1	Y1	Z1	X2	Y2	Z2	X3	Y3	Z3	X4	Y4	Z4	X5	Y5	Z5	X6	Y6	Z6	X7	Y7	Z7	X8	Y8	Z8	X9	Y9	Z9	X10	Y10	Z10	X11	Y11	Z11	X12	Y12	Z12	X13	Y13	Z13	X14	Y14	Z14	X15	Y15	Z15	X16	Y16	Z16	X17	Y17	Z17	X18	Y18	Z18	X19	Y19	Z19	X20	Y20	Z20	X21	Y21	Z21	X22	Y22	Z22	X23	Y23	Z23	X24	Y24	Z24	X25	Y25	Z25	X26	Y26	Z26	X27	Y27	Z27	
547	9.271186440677964	0.3552488271650304	0.4555208794950923	1.0228428074754832	0.35619974600683985	0.5643753943131492	1.380675461278181	0.36538892905677584	0.6910404098963318	1.7297108714387146	0.34981160822093027	0.5666203161901433	1.7810013225360024	0.4146244154594031	0.585256616318001	1.7846314523658886	0.3433928453130873	0.797250014175646	1.7968533599548429	0.1750893135657493	0.4290005570267155	1.0150364615463823	0.17446669477208382	0.5901458677970995	1.4029902072664677	0.17621150429040314	0.7281422825195385	1.7466900170744581	0.18373044530336546	0.5574322128642446	1.764538207701396	0.13403457985157827	0.6156103984398916	1.778670075772249	0.18556707959937363	0.7967700462467727	1.7974888877118465	0.2715418170155106	0.38407766956347045	0.5389390379886262	0.2841661288085404	0.29685413685093714	0.3046792097147666	0.26319812960166356	0.2548695444432961	0.44420183748333003	0.41121298331183315	0.39854572531106874	0.6168816827667142	0.4624182073486713	0.4446189019534774	0.8129212140199139	0.45130146982498504	0.249743747815296	0.8763576874761035	0.42906761750426925	0.10068032864856902	0.8427148009597891	0.42340762273740407	0.07707269492401399	0.8561319756186339	0.4343418522437537	0.13745832052498044	0.8980609374794373	0.11368180623552537	0.3926110653144226	0.6169684980020657	0.061946992790845146	0.5300770176689744	0.8106097241953187	0.08340780537542239	0.6108551672063627	0.9775745864514396	0.1354198434774937	0.6825665955594086	1.079574903531157	0.1253302914287172	0.7651775462598309	1.0878581710911959	0.0931033517861939	0.705396378703905	1.0481392294759
548	9.28813559322034	0.3555181253477873	0.45576786742924075	1.019214001676665	0.35494349763429717	0.5596174573869838	1.379494122553402	0.36535667948320905	0.6910468354532889	1.7297245426624546	0.3498103294813772	0.566554651986425	1.7809975528219926	0.414647161825565	0.5851247270662505	1.7845939191621674	0.3449421837004753	0.8016798365553466	1.7984147547667353	0.1737357212383874	0.43134079711460516	1.0129845400572794	0.17469910960986715	0.5895218792164669	1.4029097110775202	0.17621099226029616	0.7282069609685907	1.7472050857622123	0.1837486006373105	0.5573794285101507	1.764593461186814	0.1340797973099768	0.6160809260589989	1.7786802129036694	0.18553941855642034	0.796812195163089	1.7974453259682284	0.2706180803003055	0.38107036352082113	0.5380171997269317	0.2842118897824541	0.2969026790851003	0.3046717799836534	0.2636723798105966	0.2550962839950791	0.44421901295985106	0.4105866092418451	0.3985594497582906	0.6155635882770851	0.46289194659672506	0.4448763516064032	0.8108095148365749	0.45586087167523826	0.25833783984123865	0.8853629632683585	0.43139961766558216	0.10684099409245247	0.8666064793553487	0.4258297947890985	0.0837644962842558	0.8770226298173622	0.4427644359780209	0.14789631659498675	0.9170431030638719	0.11367265133296962	0.39283540012183654	0.6180676124765058	0.06298167787692871	0.5303953882339565	0.8150738999738553	0.08278519849924301	0.608400290271319	0.9787610921955967	0.12957718382273414	0.6616918666157419	1.0664988467727317	0.10881108050654364	0.7268316211729978	1.0678713565006226	0.09217606735184951	0.7082420810656346	1.0522316250172508
549	9.305084745762713	0.35453620077499653	0.4557557141489064	1.014950092571113	0.3538931142962207	0.5561773911646263	1.3789877734058917	0.365333378895506	0.6910004626903454	1.7297254777406876	0.3494900267373339	0.5650596669976906	1.7804891362704653	0.41467493513252107	0.5848424680420282	1.7845086033809272	0.34628976387583754	0.8074360782471572	1.8006817916586058	0.17110870590279115	0.43101358726932076	1.0091192469982886	0.17392553112279868	0.5893373428381962	1.4033139543658346	0.17608214668870426	0.7284774431495231	1.7485570263717278	0.18376080290873556	0.5573282115401677	1.76472038625218	0.1342324302540232	0.6165388350214164	1.778702382232402	0.18542345106500102	0.7972425967882791	1.7980553393874725	0.2697189916682346	0.3797351826928581	0.5367460735839037	0.28430742526935304	0.2969813735138571	0.30466224888344773	0.26367755897217104	0.25511200318425814	0.4442021517079228	0.40930343173290273	0.3982707303165002	0.6146001985370578	0.46287681267260894	0.4443911207687731	0.810810934209239	0.4578787542846955	0.26253065845749024	0.8972273287882173	0.4334548139195292	0.10580379433155296	0.8908511061795235	0.4296631570324894	0.0866884253025638	0.8999284620926651	0.4521030291970132	0.1551207029484431	0.9412459259155225	0.1138054701110138	0.3931456629059469	0.6191653006517395	0.06240493438421374	0.5270549041067263	0.8179160241082215	0.07938100717963076	0.6016861473565764	0.9820851938986919	0.11991797897663323	0.6492514556902741	1.0563783255925632	0.09337331500544804	0.6966761374396414	1.0626100447750835	0.08985298446794208	0.7098566481338217	1.0615585887065735
550	9.322033898305085	0.3525287837160514	0.45646052454759156	1.0102958521657046	0.3532798580333093	0.5551665335272971	1.3797106551401377	0.3653139383613934	0.6910044808979422	1.729758017823713	0.34865446903937247	0.5614635418769851	1.7792136310374929	0.41470188543683373	0.5846873798595551	1.7844666513015204	0.34690000577752794	0.8123326685560663	1.8029907681188564	0.16773496050974324	0.4287662146216123	1.0040904311208623	0.17153386278790517	0.5896146810061519	1.4040946085260346	0.1757583759395213	0.7290349805197085	1.7503577453035577	0.1837357247589575	0.5574109202451073	1.7649292677260422	0.13441700972010515	0.6168963917373782	1.7787855205546896	0.18522072748636725	0.7983650957728392	1.7998139743976145	0.26849538003354845	0.3790910022737432	0.535787921127414	0.28430206539582	0.297083047811728	0.3046430975388649	0.2632120663058127	0.25498809782898746	0.443896832743531	0.40773492026872166	0.3977060461381315	0.614222967370829	0.4627234241953081	0.44366578901796055	0.8122364065933394	0.45938450049653995	0.26319440757514023	0.9120961748967106	0.436036232308042	0.09719521066117427	0.9177432457268321	0.4356868424898711	0.08649085825394612	0.9277433319506474	0.4636921121392098	0.161303159938816	0.9691228216749451	0.11396241478118124	0.39360123128297203	0.6186585461815672	0.06126042712384028	0.5199324828995153	0.8185372376956189	0.07105300325341704	0.5867822842152011	0.9899610381279613	0.10399206408290257	0.648126061347268	1.0637854549259145	0.08016501038648699	0.6799684727459671	1.0813344425344147	0.08059764286762278	0.6976605090461908	1.0765489403719843
551	9.33898305084746	0.3504577138137305	0.4584491989116675	1.0053668806952294	0.35297938314490546	0.5557640750787882	1.3812681270088674	0.36528706384479237	0.6911268141664866	1.7298703861057354	0.3475429733006979	0.5568501529676384	1.7775652081092668	0.41470775494021067	0.5847989808982031	1.7845217313462787	0.3468628876877011	0.8163711410818334	1.8055717714528168	0.165135193898213	0.4282274647894988	0.9997742705812619	0.16837867824097125	0.5900676676133888	1.4051896157037915	0.17531257662171332	0.7297408420960853	1.7517418336937212	0.18363886550054725	0.5577617613905972	1.7652082291131843	0.13453837794153534	0.6169745358448958	1.7789322737988187	0.18502737379439915	0.799871121670746	1.8022970066189763	0.2671630748001537	0.37866588560100223	0.5354257660975561	0.2838495786906218	0.29709052942592806	0.3046154797653157	0.26216455340691386	0.2547662674310518	0.44310575392389506	0.4066040519246317	0.397154618893909	0.6141693911863917	0.4627787135245096	0.4431192125255958	0.8142100671931745	0.46153132751526593	0.2633807627306523	0.9296007556154562	0.43924953198360633	0.08673866422869522	0.9492399982957949	0.4438305915992848	0.08686564821258824	0.9615921267628107	0.4751896704423052	0.16861142575769947	0.9996580365779946	0.11398649744393237	0.3948820200830974	0.6160018542819174	0.0607309059314685	0.5115690057743906	0.8185320152723801	0.05926372733940325	0.5686944399162795	1.0030614972945915	0.0822762335817854	0.6424270800351528	1.0891648662487337	0.06528952518614144	0.6607831407205907	1.1145341821659602	0.0638450736244627	0.6696604177483766	1.097390635699549
